<svg xmlns="http://www.w3.org/2000/svg" width="471.84" height="185.34" viewBox="0 0 471.84 185.34">
  <g id="Group_352" data-name="Group 352" transform="translate(830.547 -852.182)">
    <g id="Group_349" data-name="Group 349" transform="translate(-773.974 1005.832)">
      <path id="Path_61" data-name="Path 61" d="M-694.62,1177.856a16.79,16.79,0,0,1-3.784.24c-.558,0-.747-.415-.8-.891-.136-1.145-.274-2.29-.38-3.438-.3-3.269-.584-6.54-.881-9.809a1.431,1.431,0,0,0-.372-.875c-.128.3-.281.584-.381.889-1.266,3.878-2.6,7.736-3.747,11.65a2.614,2.614,0,0,1-2.8,2.232c-.346,0-.692.047-1.162.082l-4.752-15.035c-.649,1.116-.4,2.153-.573,3.1-.186,1-.235,2.026-.342,3.041-.1.97-.2,1.942-.3,2.912-.1,1.015-.2,2.031-.321,3.044s-.27,2-.406,2.99h-3.867l3.074-20.3a9.456,9.456,0,0,1,3.922-.573,1.258,1.258,0,0,1,.8.547,5.424,5.424,0,0,1,.508,1.223q1.872,5.265,3.737,10.532c.156.44.344.87.628,1.582.28-.7.447-1.091.6-1.49,1.389-3.695,2.8-7.383,4.142-11.093a1.41,1.41,0,0,1,1.422-1.108c1.009-.045,2.015-.177,3.012-.271a10.333,10.333,0,0,1,.8,3.873c.738,5.136,1.415,10.281,2.107,15.424C-694.678,1176.807-694.664,1177.287-694.62,1177.856Z" transform="translate(719.489 -1155.394)" fill="#464646"/>
      <path id="Path_62" data-name="Path 62" d="M-536.1,1183.43c-1.361.507-2.669.274-4.091.321-.047-.622-.111-1.094-.114-1.565-.011-2.219,0-4.438-.011-6.657a9.658,9.658,0,0,0-.137-1.585,2.151,2.151,0,0,0-1.625-1.9,2.825,2.825,0,0,0-2.829.721,1.905,1.905,0,0,0-.337,1.211c-.03,2.529-.016,5.059-.017,7.589,0,.311-.01.621,0,.932a1.017,1.017,0,0,1-1.02,1.157c-1.045.059-2.1.016-3.26.016-.023-.512-.061-.941-.06-1.371,0-2.352.013-4.7.02-7.056,0-.266.009-.534-.015-.8a2.488,2.488,0,0,0-3.447-2.371,1.718,1.718,0,0,0-1.5,2c-.009,2.663,0,5.326-.006,7.988,0,1.379-.219,1.615-1.6,1.675-.834.036-1.672.007-2.656.007-.033-.554-.085-1.023-.084-1.491,0-3.106.041-6.213.012-9.319a21.793,21.793,0,0,0-.39-2.677,2.726,2.726,0,0,1,2.4-1.463c1.316-.084,1.677,1.1,2.286,2.013.651-.395,1.239-.785,1.857-1.119a5.507,5.507,0,0,1,3.81-.835,4,4,0,0,1,2.553,1.551c.153.21.347.39.588.657.395-.26.747-.517,1.122-.734a21.585,21.585,0,0,1,1.979-1.082c2.914-1.3,6.077.158,6.506,3.951a26.913,26.913,0,0,1,.073,2.926C-536.1,1178.507-536.1,1180.9-536.1,1183.43Z" transform="translate(640.889 -1161.146)" fill="#2eb431"/>
      <path id="Path_63" data-name="Path 63" d="M-128.594,1176.555v-22.083a10.565,10.565,0,0,1,4.332-.4c.051.529.142,1.043.144,1.557.018,3.819.016,7.638.026,11.457,0,.463.037.926.057,1.389l.321.108,5.692-7.181c.678.084,1.471.131,2.241.288,1.026.209,1.184.606.546,1.469-.818,1.105-1.71,2.157-2.581,3.222-.5.617-1.03,1.217-1.653,1.95a72.255,72.255,0,0,0,5.276,7.9,9.316,9.316,0,0,1-4.074.421,2.66,2.66,0,0,1-1.769-1.306c-1.057-1.535-2.091-3.086-3.129-4.634a2.692,2.692,0,0,0-.791-.883,6.445,6.445,0,0,0-.132.9c-.014,1.509.009,3.02-.015,4.529-.016,1.08-.147,1.233-1.23,1.285C-126.38,1176.594-127.432,1176.555-128.594,1176.555Z" transform="translate(429.597 -1153.902)" fill="#464646"/>
      <path id="Path_64" data-name="Path 64" d="M-435.574,1168.794c.262-.27.55-.519.782-.811,1.409-1.77,2.859-3.512,4.185-5.343a1.958,1.958,0,0,1,2.345-.921c1.757.421,1.884.629.731,2.064-1.028,1.279-2.061,2.558-3.153,3.782a1.26,1.26,0,0,0-.138,1.774c1.29,1.911,2.558,3.838,3.838,5.756.219.328.454.645.791,1.121a7.152,7.152,0,0,1-1.151.338c-.616.07-1.241.048-1.86.094a2.568,2.568,0,0,1-2.473-1.252c-1.059-1.586-2.128-3.165-3.192-4.747l-.691-1.033-.3.092c-.03.417-.082.833-.085,1.25-.011,1.464.011,2.928-.013,4.392-.014.881-.224,1.114-1.074,1.193-.661.062-1.33.048-2,.047-.348,0-.7-.046-1.182-.082-.032-.465-.085-.889-.086-1.314q-.008-9.718,0-19.436c0-1.206.05-1.259,1.242-1.395.7-.08,1.406-.174,2.111-.226.665-.048.98.306.981.961,0,.489.014.977.014,1.465q0,5.325,0,10.65v1.433Z" transform="translate(582.519 -1153.97)" fill="#2eb431"/>
      <path id="Path_65" data-name="Path 65" d="M-314.871,1160.225h-1.584q-3.062,0-6.125,0a7.785,7.785,0,0,1-1.063-.035c-1.049-.147-1.31-.587-.906-1.54a9.583,9.583,0,0,1,.587-1.041.991.991,0,0,1,.986-.514c4.213.077,8.427.126,12.64.189.3,0,.606.056.984.093a8.29,8.29,0,0,1-1.163,3.926c-1.778,3.274-3.592,6.528-5.4,9.783-.687,1.234-1.4,2.451-2.2,3.835a20.385,20.385,0,0,0,4.864.293c1.593.026,3.186.005,4.782.005a2.918,2.918,0,0,1-2.808,2.873q-5.923.007-11.846-.061c-.595-.006-1.335.152-1.7-.483-.406-.7.312-1.124.611-1.62q4.248-7.07,8.528-14.121C-315.443,1161.4-315.247,1160.954-314.871,1160.225Z" transform="translate(525.93 -1155.421)" fill="#464646"/>
      <path id="Path_66" data-name="Path 66" d="M-628.228,1170.539c.656-.42,1.205-.787,1.77-1.128a5.313,5.313,0,0,1,3.3-.823,4.127,4.127,0,0,1,3.837,2.809,8.984,8.984,0,0,1,.536,2.723c.08,2.971.057,5.945.067,8.919a3.279,3.279,0,0,1-.13.556l-4.275.2c-.061-.633-.141-1.1-.144-1.569-.014-2.263,0-4.527-.009-6.79a9.145,9.145,0,0,0-.07-1.327,2.3,2.3,0,0,0-2.909-2.142c-1.387.2-1.816.686-1.818,2.082q-.007,3.928,0,7.855v1.367c-1.516.654-3,.421-4.524.5,0-1.227,0-2.279,0-3.33.012-2.573.048-5.148.026-7.721a3.418,3.418,0,0,0-.357-1.654.9.9,0,0,1,.156-1.289,5.835,5.835,0,0,1,1.633-1.09,1.907,1.907,0,0,1,2.4.9C-628.577,1169.837-628.45,1170.119-628.228,1170.539Z" transform="translate(677.121 -1161.038)" fill="#464646"/>
      <path id="Path_67" data-name="Path 67" d="M-247.378,1183.954c-4.459,0-7.306-2.826-7.36-7.318-.039-3.3,1.219-5.89,4.289-7.347a7.994,7.994,0,0,1,6.717-.113,6.665,6.665,0,0,1,4.053,5.675,9.13,9.13,0,0,1-.313,3.952C-240.985,1182.065-243.692,1183.955-247.378,1183.954Zm3.227-7.626a28.985,28.985,0,0,0-.817-3.4,2.492,2.492,0,0,0-2.561-1.735,2.5,2.5,0,0,0-2.181,2.037,10.01,10.01,0,0,0,.12,5.874,3.876,3.876,0,0,0,.4.832,2.5,2.5,0,0,0,2.523,1.369,2.315,2.315,0,0,0,1.993-1.886C-244.426,1178.487-244.342,1177.513-244.151,1176.328Z" transform="translate(491.483 -1161.014)" fill="#464646"/>
      <path id="Path_68" data-name="Path 68" d="M-289.292,1176.506c-.113-5.926,5.236-9.223,10.542-7.464,2.849.945,4.216,3.16,4.514,6.017a10.764,10.764,0,0,1-.27,3.555,6.942,6.942,0,0,1-6.262,5.329,10.554,10.554,0,0,1-2.783-.08C-287.208,1183.2-289.281,1180.5-289.292,1176.506Zm4.569-.528.1.021c.031.529.029,1.063.1,1.587a5.358,5.358,0,0,0,1.08,2.808,2.285,2.285,0,0,0,4.056-.561,9.05,9.05,0,0,0-.173-6.974,2.46,2.46,0,0,0-2.507-1.621,2.335,2.335,0,0,0-2.142,1.889A28.387,28.387,0,0,0-284.722,1175.978Z" transform="translate(508.436 -1161.052)" fill="#464646"/>
      <path id="Path_69" data-name="Path 69" d="M-84.632,1181.038c.077,1.448-.326,2.226-1.4,2.7-1.5.668-2.841.286-4.471-1.263a16.89,16.89,0,0,1-2.06,1.2,4.2,4.2,0,0,1-5.837-4.552,3.411,3.411,0,0,1,2.077-2.746,35.868,35.868,0,0,1,4.008-1.366c.583-.181,1.2-.256,1.765-.372.127-1.611-.542-2.6-1.957-2.657a11.916,11.916,0,0,0-2.719.433c-.429.084-.836.315-1.265.354a1.18,1.18,0,0,1-1.256-.975c-.141-.457-.3-.988.252-1.313,2.261-1.33,4.618-2.332,7.318-1.678a4.956,4.956,0,0,1,4.012,4.97c.039,1.641-.031,3.284-.054,4.926C-86.246,1180.516-86.247,1180.516-84.632,1181.038Zm-5.92-4.159a5.069,5.069,0,0,0-3.141,1.107,1.6,1.6,0,0,0-.331,1.94,1.988,1.988,0,0,0,2.151.942,1.3,1.3,0,0,0,1.3-1.251C-90.49,1178.76-90.552,1177.89-90.552,1176.88Z" transform="translate(414.807 -1161.067)" fill="#464646"/>
      <path id="Path_70" data-name="Path 70" d="M-651.417,1181.061a2.5,2.5,0,0,1-1.492,2.675,3.425,3.425,0,0,1-4.408-1.257,18.779,18.779,0,0,1-2.26,1.244,4.18,4.18,0,0,1-5.767-4.172,3.617,3.617,0,0,1,1.763-2.96,12.416,12.416,0,0,1,4.346-1.57c.56-.124,1.125-.227,1.669-.336a1.909,1.909,0,0,0-1.564-2.649,8.7,8.7,0,0,0-2.474.221,10.9,10.9,0,0,0-1.242.458,1.291,1.291,0,0,1-1.738-.776c-.382-.837-.264-1.206.624-1.707a10.888,10.888,0,0,1,5.146-1.608c3.47-.071,5.713,2.023,5.813,5.505.044,1.547-.106,3.1-.138,4.649C-653.177,1180.552-653.162,1180.552-651.417,1181.061Zm-5.978-4.014a4.215,4.215,0,0,0-3.178.939,1.549,1.549,0,0,0-.345,1.932,1.948,1.948,0,0,0,2.139.963,1.4,1.4,0,0,0,1.37-1.362C-657.349,1178.7-657.4,1177.865-657.4,1177.047Z" transform="translate(692.928 -1161.078)" fill="#464646"/>
      <path id="Path_71" data-name="Path 71" d="M-459.6,1181.249a2.135,2.135,0,0,1-1.23,2.495c-1.412.675-2.758.295-4.437-1.3-.415.268-.845.559-1.289.828a4.3,4.3,0,0,1-4.417.26,3.933,3.933,0,0,1-.383-6.794,13.38,13.38,0,0,1,4.485-1.576c.516-.111,1.033-.217,1.519-.319a2.308,2.308,0,0,0-2.8-2.927,18.515,18.515,0,0,0-2.536.752c-.969.3-1.734-.165-1.748-1.139a1.19,1.19,0,0,1,.378-.9,9.37,9.37,0,0,1,6.526-1.738,4.92,4.92,0,0,1,4.465,5.236c.034,1.595-.05,3.192-.063,4.788C-461.142,1180.607-461.133,1180.607-459.6,1181.249Zm-5.612-4.474a17.633,17.633,0,0,0-2.2.564,3.762,3.762,0,0,0-1.293.882,1.535,1.535,0,0,0-.126,1.966,2.2,2.2,0,0,0,2.483.813,1.415,1.415,0,0,0,1.124-1.452C-465.185,1178.72-465.214,1177.889-465.214,1176.775Z" transform="translate(598.632 -1161.163)" fill="#2eb431"/>
      <path id="Path_72" data-name="Path 72" d="M-402.165,1174.82a2.423,2.423,0,0,0-2.924-2.894,15.816,15.816,0,0,0-2.413.714,1.338,1.338,0,0,1-1.921-.982.841.841,0,0,1,.385-1.032c2.194-1.238,4.446-2.257,7.065-1.625a4.967,4.967,0,0,1,4.022,4.959c.032,1.373-.073,2.749-.114,4.124-.014.488-.052.977-.029,1.464.048.975.21,1.158,1.189,1.492.161.056.319.12.513.193a2.294,2.294,0,0,1-1.375,2.5,3.4,3.4,0,0,1-4.38-1.346c-.436.3-.823.568-1.22.824a4.271,4.271,0,0,1-5.5-.387,3.912,3.912,0,0,1,.6-6.1,13.749,13.749,0,0,1,4.5-1.561C-403.25,1175.052-402.734,1174.942-402.165,1174.82Zm.12,3.995c0-.432,0-.564,0-.7-.04-1.211-.163-1.338-1.307-1.044a7.868,7.868,0,0,0-1.818.716,1.588,1.588,0,0,0-.818,1.551,1.735,1.735,0,0,0,1.677,1.7c1.285.13,1.986-.285,2.2-1.347A5.193,5.193,0,0,0-402.046,1178.814Z" transform="translate(567.679 -1161.168)" fill="#2eb431"/>
      <path id="Path_73" data-name="Path 73" d="M-172.822,1177.018a3.536,3.536,0,0,0,2.747,3.54,8.025,8.025,0,0,0,3.812-.1c.422-.084.835-.206,1.266-.313a3.444,3.444,0,0,1-2.31,3.5,9.992,9.992,0,0,1-5.512-.072,5.829,5.829,0,0,1-4.177-4.262,9.255,9.255,0,0,1,.692-7.092,6.962,6.962,0,0,1,8.414-3.323,5.689,5.689,0,0,1,3.712,5.841,1.521,1.521,0,0,1-1.118,1.48,25.723,25.723,0,0,1-3.607.766A38.87,38.87,0,0,1-172.822,1177.018Zm.067-2.392c1.233,0,2.457.016,3.681-.008a.713.713,0,0,0,.7-.814,4.364,4.364,0,0,0-.205-1.3,1.962,1.962,0,0,0-3.4-.7A3.107,3.107,0,0,0-172.755,1174.626Z" transform="translate(453.538 -1161.032)" fill="#464646"/>
      <path id="Path_74" data-name="Path 74" d="M-202.943,1184.073c-.165-.332-.235-.445-.28-.566-1.724-4.648-3.447-9.3-5.21-14.054a8.693,8.693,0,0,1,3.649-.824,1.029,1.029,0,0,1,1.047.843c.229.67.463,1.339.675,2.015.624,1.985,1.235,3.974,1.856,5.959.1.331.229.654.457,1.3,1.343-3.466,2.349-6.729,3.458-10.084a4.994,4.994,0,0,1,1.014.01c2.693.567,2.631.94,1.786,3.043-1.452,3.616-2.939,7.218-4.387,10.835a1.655,1.655,0,0,1-1.429,1.2C-201.178,1183.844-202.048,1183.962-202.943,1184.073Z" transform="translate(468.766 -1161.081)" fill="#464646"/>
      <path id="Path_75" data-name="Path 75" d="M-598.142,1179.966c1.087.353,2.076.734,3.1.98a3.122,3.122,0,0,0,1.558-.068,1.034,1.034,0,0,0,.413-1.916,5.286,5.286,0,0,0-1.009-.633c-.778-.422-1.592-.784-2.346-1.245a4.377,4.377,0,0,1-.137-7.524,6.634,6.634,0,0,1,6.606-.337c.841.38.922.7.609,1.6s-.766,1.235-1.555,1.1c-.434-.075-.853-.237-1.286-.318a3.344,3.344,0,0,0-1.049-.084c-.527.073-1.076.211-1.237.837a1.117,1.117,0,0,0,.672,1.311c1.008.554,2.052,1.043,3.06,1.6a4.22,4.22,0,0,1,2.061,5.425,4.634,4.634,0,0,1-2.77,2.706,8.105,8.105,0,0,1-5.6.19C-599.139,1182.933-599.452,1181.87-598.142,1179.966Z" transform="translate(660.341 -1161.02)" fill="#464646"/>
      <path id="Path_76" data-name="Path 76" d="M-49.682,1179.984c1.077.346,2.069.737,3.1.964a3.266,3.266,0,0,0,1.682-.127,1.008,1.008,0,0,0,.335-1.8,4.573,4.573,0,0,0-.993-.657c-.818-.446-1.679-.817-2.468-1.307a4.391,4.391,0,0,1-.043-7.539,6.659,6.659,0,0,1,6.5-.325c.822.365.969.857.643,1.727a1.307,1.307,0,0,1-1.634.987,12.161,12.161,0,0,0-1.547-.363,3.126,3.126,0,0,0-1.412.214.893.893,0,0,0-.277,1.532,4.242,4.242,0,0,0,1.072.769c.741.4,1.514.74,2.262,1.127a4.072,4.072,0,0,1,2.491,3.908,4.351,4.351,0,0,1-2.539,4.057,7.71,7.71,0,0,1-6.324.333C-50.761,1182.787-51,1181.779-49.682,1179.984Z" transform="translate(391.289 -1161.021)" fill="#464646"/>
      <path id="Path_77" data-name="Path 77" d="M-65.49,1176.669v-22.256l4.015-.6a2.706,2.706,0,0,1,.483,2.069q.029,9.252.032,18.5c0,.617,0,1.235,0,2.047Z" transform="translate(398.638 -1153.812)" fill="#464646"/>
      <path id="Path_78" data-name="Path 78" d="M-361.667,1180.211c.91.315,1.727.667,2.579.869a5.427,5.427,0,0,0,1.836.078,1.1,1.1,0,0,0,1.082-1,2.118,2.118,0,0,0-.575-1.24,3.886,3.886,0,0,0-1.12-.7c-.7-.377-1.443-.691-2.121-1.108a4.279,4.279,0,0,1-.059-7.395,6.435,6.435,0,0,1,6.239-.364c.84.362,1,.78.732,1.58a1.251,1.251,0,0,1-1.609.958,9.072,9.072,0,0,0-1.283-.328,3.527,3.527,0,0,0-1.427.119,1.063,1.063,0,0,0-.384,1.952,5.274,5.274,0,0,0,1.109.723c.706.371,1.445.679,2.145,1.06a3.98,3.98,0,0,1,2.368,3.567,4.266,4.266,0,0,1-2.258,4.074,7.374,7.374,0,0,1-5.01.832,7.324,7.324,0,0,1-1.405-.379C-362.65,1182.813-362.9,1181.888-361.667,1180.211Z" transform="translate(544.316 -1161.125)" fill="#2eb431"/>
      <path id="Path_79" data-name="Path 79" d="M-483.672,1176.519h-4.235c-.036-.491-.094-.919-.095-1.348q-.027-9.71-.039-19.422c0-.947.047-1.029,1-1.25a17.317,17.317,0,0,1,2.091-.352c.805-.084,1.043.119,1.118.924.053.573.048,1.152.048,1.728,0,4.922,0,9.844.008,14.766,0,1.018.074,2.037.1,3.055C-483.66,1175.187-483.672,1175.754-483.672,1176.519Z" transform="translate(605.941 -1153.968)" fill="#2eb431"/>
      <path id="Path_80" data-name="Path 80" d="M-145.518,1169.3l4.3-.363a11,11,0,0,1,.2,1.42q.024,6.113.01,12.226c0,.952-.16,1.2-.982,1.257-1.139.074-2.285.018-3.533.018Z" transform="translate(437.9 -1161.234)" fill="#464646"/>
      <path id="Path_81" data-name="Path 81" d="M-376.914,1183.762V1169.5l4-.395a16.748,16.748,0,0,1,.253,1.956c.022,3.728.017,7.455.009,11.183,0,1.393-.227,1.617-1.617,1.664-.709.024-1.419.012-2.129,0A2.593,2.593,0,0,1-376.914,1183.762Z" transform="translate(551.422 -1161.316)" fill="#2eb431"/>
      <path id="Path_82" data-name="Path 82" d="M-504.981,1183.993v-14.41c1.132-.107,2.257-.225,3.384-.315.627-.051.871.314.871.9,0,.265.015.531.015.8q0,5.645,0,11.289c0,1.593-.117,1.707-1.755,1.739C-503.256,1184.006-504.045,1183.993-504.981,1183.993Z" transform="translate(614.252 -1161.392)" fill="#2eb431"/>
      <path id="Path_83" data-name="Path 83" d="M-23.94,1171.649c-.407-4.165-.8-8.167-1.194-12.216a11.107,11.107,0,0,1,4.864-.726,10.978,10.978,0,0,1,.116,1.677c-.169,2.078-.378,4.154-.595,6.228-.106,1.014-.265,2.023-.394,3.035-.189,1.492-.294,1.621-1.714,1.915A9.49,9.49,0,0,1-23.94,1171.649Z" transform="translate(378.84 -1156.196)" fill="#464646"/>
      <path id="Path_84" data-name="Path 84" d="M-489.482,1208.728a18.492,18.492,0,0,0,1.289-3.233,19.166,19.166,0,0,0,.047-3.549,3.6,3.6,0,0,1,2.167-.733,1.355,1.355,0,0,1,1.536,1,4.915,4.915,0,0,1-.966,4.609A4.385,4.385,0,0,1-489.482,1208.728Z" transform="translate(606.648 -1177.063)" fill="#2eb431"/>
      <path id="Path_85" data-name="Path 85" d="M-20.46,1191.237a2.4,2.4,0,0,1-2.576,2.574,2.4,2.4,0,0,1-2.489-2.526,2.534,2.534,0,0,1,2.681-2.664A2.367,2.367,0,0,1-20.46,1191.237Z" transform="translate(379.032 -1170.889)" fill="#464646"/>
      <path id="Path_86" data-name="Path 86" d="M-508.278,1159.5a6.465,6.465,0,0,1,.01-1.089c.159-.98.394-1.176,1.4-1.184,1.811-.014,3.623-.008,5.434,0a5.585,5.585,0,0,1,.757.1,2.269,2.269,0,0,1-.3,2.053.841.841,0,0,1-.637.38c-2.116.005-4.232-.029-6.348-.06C-508.036,1159.708-508.108,1159.618-508.278,1159.5Z" transform="translate(615.879 -1155.485)" fill="#2eb431"/>
      <path id="Path_87" data-name="Path 87" d="M-467.925,1160.2a15.575,15.575,0,0,1,.356-1.951.9.9,0,0,1,.658-.52c2.241-.039,4.483-.024,6.939-.024a15.94,15.94,0,0,1-.4,1.923.93.93,0,0,1-.647.548C-463.261,1160.211-465.5,1160.2-467.925,1160.2Z" transform="translate(596.072 -1155.718)" fill="#2eb431"/>
      <path id="Path_88" data-name="Path 88" d="M-141.063,1157.052a2.362,2.362,0,0,1-2.352,2.512,2.25,2.25,0,0,1-2.314-2.376,2.429,2.429,0,0,1,2.472-2.426A2.1,2.1,0,0,1-141.063,1157.052Z" transform="translate(438.004 -1154.279)" fill="#464646"/>
      <path id="Path_89" data-name="Path 89" d="M-377.115,1157.335a2.142,2.142,0,0,1,2.362-2.268,1.992,1.992,0,0,1,2.031,2.139,2.184,2.184,0,0,1-2.324,2.33A1.921,1.921,0,0,1-377.115,1157.335Z" transform="translate(551.521 -1154.427)" fill="#2eb431"/>
    </g>
    <g id="Group_351" data-name="Group 351" transform="translate(-830.547 852.181)">
      <path id="Path_90" data-name="Path 90" d="M-813.216,921.09c-.572-.422-.983-.74-1.409-1.037a46.883,46.883,0,0,1-8.467-7.275,28.191,28.191,0,0,1-6.622-13.886,45.267,45.267,0,0,1-.543-13.655,33.317,33.317,0,0,1,12.174-22.346,45.957,45.957,0,0,1,19.789-9.346,54.55,54.55,0,0,1,14.667-1.3c8.68.434,16.92,2.484,24.375,7.118a34.357,34.357,0,0,1,15.769,20.962c.418,1.579.7,3.194,1.079,4.956h293.9c1.75,0,1.773,0,2.081-1.714,2.341-13.033,10.071-21.72,21.9-27.052a48.805,48.805,0,0,1,14.063-3.825,54.044,54.044,0,0,1,9.559-.449c10.078.525,19.516,3.1,27.788,9.11a33.434,33.434,0,0,1,13.993,22.722,45.435,45.435,0,0,1,.178,10.627,35.459,35.459,0,0,1-2.062,9.6,28.9,28.9,0,0,1-8.852,12.126c-1.566,1.307-3.239,2.485-4.865,3.72-.377.286-.758.567-1.3.97.559.427.956.754,1.377,1.048a49.661,49.661,0,0,1,7.761,6.473A29.051,29.051,0,0,1-359.29,944.6a47.514,47.514,0,0,1,.455,10.889,33.124,33.124,0,0,1-10.957,22.686,44.315,44.315,0,0,1-19.01,10,56.485,56.485,0,0,1-10.744,1.7,52.718,52.718,0,0,1-25.425-4.361,36.55,36.55,0,0,1-17.464-15.426,35.9,35.9,0,0,1-4.091-11.894c-.223-1.314-.262-1.366-1.611-1.369q-7.794-.018-15.589-.007h-275.8c-.533,0-1.066-.007-1.6,0-1.308.028-1.332.088-1.614,1.409-.389,1.819-.712,3.664-1.273,5.43-2.934,9.243-8.979,15.886-17.4,20.461a46.508,46.508,0,0,1-17.55,5.41,62.165,62.165,0,0,1-8.357.474c-10.17-.325-19.734-2.782-28.186-8.7a33.479,33.479,0,0,1-14.422-22.161,39.2,39.2,0,0,1-.5-9.548,44.032,44.032,0,0,1,1.59-9.826A29.545,29.545,0,0,1-818.39,925.01c1.423-1.132,2.927-2.163,4.39-3.246C-813.791,921.609-813.6,921.426-813.216,921.09Zm86.778-10.485a23.561,23.561,0,0,0-6.754,3.045,9.369,9.369,0,0,0-3.765,4.529,18.745,18.745,0,0,0-1.13,5.445,10.636,10.636,0,0,0,2.692,8.354,19.064,19.064,0,0,0,7,4.961,30.741,30.741,0,0,0,8.722,2.235,24.035,24.035,0,0,0,10.507-.98c4.741-1.6,8.215-4.576,9.565-9.546a22.988,22.988,0,0,0,.823-5.5,13.861,13.861,0,0,0-4.545-10.952,26.063,26.063,0,0,0-9.9-5.549,43.408,43.408,0,0,0-9.777-1.807c-2.892-.247-5.231,1.158-7.358,2.893-.976.8-.746,1.487.464,1.859C-728.832,909.911-727.773,910.212-726.438,910.6Zm42.575.005a23.011,23.011,0,0,0-6.707,3,9.518,9.518,0,0,0-3.746,4.381,17.951,17.951,0,0,0-1.264,6.09,10.548,10.548,0,0,0,2.777,7.944,19.011,19.011,0,0,0,6.9,4.888,30.566,30.566,0,0,0,8.716,2.257,24.009,24.009,0,0,0,11.135-1.177,13.767,13.767,0,0,0,8.948-9,19.885,19.885,0,0,0,.765-8.163,12.564,12.564,0,0,0-3.18-7.329,21.933,21.933,0,0,0-6.748-5.12,37.414,37.414,0,0,0-14.765-3.537c-2.646-.114-4.805,1.342-6.82,2.926a.957.957,0,0,0-.174.2c-.574.787-.435,1.252.518,1.558C-686.374,909.884-685.223,910.205-683.863,910.61Zm145.191,10.965c0,.651.008,1.08,0,1.508q-.144,6.456-.3,12.912c-.037,1.515.411,2.009,1.906,2.051a32.955,32.955,0,0,0,7-.683,8.893,8.893,0,0,0,2.136-.7c.92-.434,1.07-.866.778-1.834-.231-.764-.509-1.513-.762-2.27a30.554,30.554,0,0,1-1.749-11.375c.145-2.65.507-5.294.881-7.925.276-1.941.016-2.539-1.872-3.175a17.848,17.848,0,0,0-7.2-.987,7.138,7.138,0,0,0-2.758.826,19.026,19.026,0,0,0-4.718,3.657c-1.311,1.388-2.637,2.761-3.964,4.133-.231.239-.5.444-.969.859,0-1.94,0-3.613,0-5.286,0-2.121-.017-4.242,0-6.363.006-.525-.177-.92-.664-1-2.091-.358-4.183-.855-6.321-.358-1.786.416-2.651,1.3-2.735,3.109-.15,3.232-.244,6.47-.228,9.706.024,5.061.127,10.118-1.045,15.1a2.393,2.393,0,0,0,.9,2.5,5.99,5.99,0,0,0,1.848,1,16.272,16.272,0,0,0,5.629.8,3.49,3.49,0,0,0,3.16-2.055,33.044,33.044,0,0,1,2.938-4.889c2.34-2.953,4.876-5.75,7.338-8.606A7.963,7.963,0,0,1-538.672,921.575Zm-47.22,6.445c1-.15,1.823-.277,2.642-.394a61.825,61.825,0,0,0,11.025-2.391,17.921,17.921,0,0,0,5.013-2.421,5.753,5.753,0,0,0,2.365-3.12,6.087,6.087,0,0,0-2.067-6.585,15.107,15.107,0,0,0-4.689-2.739,25.311,25.311,0,0,0-6.065-1.4,26.722,26.722,0,0,0-13.83,1.692,12.666,12.666,0,0,0-5,3.448,14.583,14.583,0,0,0,.6,19.549,15.219,15.219,0,0,0,11.007,4.588c2.169.054,4.349-.062,6.515-.225,2.913-.219,5.83-.471,8.72-.885a15.628,15.628,0,0,0,3.763-1.246,1.76,1.76,0,0,0,1.182-2.015,2.118,2.118,0,0,0-1.868-1.958,8.382,8.382,0,0,0-1.585-.135c-2.264,0-4.53.084-6.793.027-2.214-.055-4.439-.131-6.633-.406C-583.557,931.157-584.87,929.869-585.892,928.02Zm-171.342,2.21-.07-.279c.318-.278.634-.558.954-.834,5.18-4.458,10.373-8.9,15.534-13.379a5.84,5.84,0,0,0,.969-7.058,2.342,2.342,0,0,0-2.208-1.217c-.621.026-1.242.044-1.861.087-3.359.23-6.717.475-10.077.7-2.565.17-5.13.4-7.7.45-2.789.058-5.583-.028-8.373-.111-1.1-.033-2.2-.289-3.3-.333-1.318-.053-1.581.359-1.156,1.635a15.055,15.055,0,0,0,2.888,4.9,4.288,4.288,0,0,0,3.6,1.638c4.038-.08,8.077-.06,12.115-.075.552,0,1.1.024,1.912.044-.444.466-.664.731-.918.957-1.557,1.387-3.1,2.79-4.69,4.141-4.325,3.68-8.594,7.438-13.561,10.271a1.9,1.9,0,0,0-.965,2.263c.224.945.567,1.862.859,2.791a2.229,2.229,0,0,0,2.5,1.7c2.835-.112,5.673-.153,8.51-.2,5.9-.109,11.8-.222,17.7-.294a3.323,3.323,0,0,0,2.873-1.382,11.488,11.488,0,0,0,1.493-2.786,5.489,5.489,0,0,0,.106-2.353c-.121-1-.609-1.346-1.62-1.392-.31-.014-.621,0-.932,0l-13.178.12C-756.3,930.233-756.768,930.229-757.234,930.229Zm331.216-1.127a2.571,2.571,0,0,1-2.381,1.749,22.116,22.116,0,0,1-3.832.321c-2.3-.016-4.6-.165-6.906-.243-.814-.028-1.368-.29-1.407-1.219a.962.962,0,0,0-.852-.895,9.258,9.258,0,0,0-5.619.364,1.73,1.73,0,0,0-1.064,2.668,7.849,7.849,0,0,0,1.577,2.1,15.15,15.15,0,0,0,4.847,2.987,27.075,27.075,0,0,0,7.625,1.685,33.676,33.676,0,0,0,14.8-1.7,15.69,15.69,0,0,0,3.064-1.569,3.257,3.257,0,0,0,1.56-2.52,6.286,6.286,0,0,0-2.277-5.815,16.444,16.444,0,0,0-2.441-1.609,46.515,46.515,0,0,0-7.833-3.309c-1.974-.665-3.936-1.37-5.872-2.137-1.507-.6-1.731-1.555-.657-2.775a9.839,9.839,0,0,1,4.768-3.026,2.4,2.4,0,0,1,2.735.862,9.677,9.677,0,0,1,1.1,1.957,1.114,1.114,0,0,0,1.08.8c2.217.057,4.433.164,6.651.208a6.766,6.766,0,0,0,1.707-.226,1.274,1.274,0,0,0,1.105-1.435,5.5,5.5,0,0,0-.5-1.907c-1.919-3.924-5.271-5.693-9.456-6.182a29.457,29.457,0,0,0-5.974-.025,29.447,29.447,0,0,0-12.047,3.44,11.733,11.733,0,0,0-2.736,2.081,4.573,4.573,0,0,0-.248,5.984,12,12,0,0,0,1.778,1.789,21.04,21.04,0,0,0,6.45,3.673c2.874,1.043,5.792,1.964,8.686,2.953C-427.753,928.419-426.943,928.752-426.018,929.1Zm-89.47-14.84v1.815q0,9.92,0,19.84c0,1.586.16,1.791,1.721,2.169a23.309,23.309,0,0,0,8.85.048,11.636,11.636,0,0,0,2.435-.618c1.1-.413,1.251-.819,1.021-1.946a23.935,23.935,0,0,1-.52-3.006c-.239-3.317-.429-6.638-.6-9.959-.112-2.17-.163-4.344-.222-6.517a9.616,9.616,0,0,1,.116-1.189c.518-.025.91-.05,1.3-.062,3.014-.095,6.028-.165,9.04-.286,2.416-.1,2.646-.3,3.316-2.59a10.058,10.058,0,0,0,.258-1.032c.226-1.243-.254-1.842-1.538-1.889-2.615-.1-5.232-.152-7.846-.272a28.725,28.725,0,0,1-3.433-.352c-1.875-.316-2-.495-1.974-2.432.016-1.108.16-2.215.155-3.322a1.935,1.935,0,0,0-1.927-2.115,3.552,3.552,0,0,0-1.062-.006c-2.172.4-4.338.844-6.508,1.258A2.746,2.746,0,0,0-515.133,904a20.479,20.479,0,0,0-.353,2.757c-.051.462-.074.927-.117,1.478-2.11,0-4.058,0-6.007,0a2.763,2.763,0,0,0-3.111,2.287,9.43,9.43,0,0,0-.323,2.622,1.544,1.544,0,0,0,1.786,1.673c.929-.006,1.857-.1,2.784-.17C-518.891,914.532-517.311,914.4-515.488,914.262Zm-104.795,24.285c4.58.339,9.107-.976,13.649-2.174,1.135-.3,1.3-.984.5-1.847a4.52,4.52,0,0,0-3.911-1.6c-1.848.19-3.693.416-5.541.608a13.943,13.943,0,0,1-3.034.227,10.868,10.868,0,0,1-7.257-4.036,8.422,8.422,0,0,1-2.062-6.554,12.658,12.658,0,0,1,6.189-9.337A5.4,5.4,0,0,1-613.816,917a13.637,13.637,0,0,1,.161,5.938c-.218,1.41-.04,1.908,1.324,2.016,2.512.2,5.04.223,7.562.253.7.008,1.12-.484,1.205-1.358a10.7,10.7,0,0,0-1.287-6.941c-3.567-5.624-10.587-9.742-18.339-7.586a29.812,29.812,0,0,0-13.306,7.193c-3.818,3.743-4.5,8-2.49,13.068,1.655,4.167,4.985,6.577,9.169,7.87A27.707,27.707,0,0,0-620.283,938.547Zm144.7-22.143c-.037-.62-.055-1-.082-1.385a13.6,13.6,0,0,0-1.27-5.531,4.849,4.849,0,0,0-3.018-2.826,16.73,16.73,0,0,0-4.215-.239c-.967.036-1.383.674-1.306,1.656.138,1.768.316,3.532.485,5.3.312,3.265.644,6.529.942,9.8q.574,6.292,1.1,12.588a1.486,1.486,0,0,0,1.259,1.49c.691.155,1.387.3,2.064.5a6.954,6.954,0,0,0,5.966-.96,2.544,2.544,0,0,0,1.25-2.191,48.409,48.409,0,0,1,.552-5.148,19.524,19.524,0,0,1,4.225-9.627,7.87,7.87,0,0,1,1.937-1.8,12.516,12.516,0,0,1,10.986-1.147,11,11,0,0,0,2.581.578c1.477.159,2.149-.409,2.044-1.865a21.958,21.958,0,0,0-.716-3.634,1.214,1.214,0,0,0-.659-.738c-2.288-.825-4.565-1.7-6.9-2.354a11.632,11.632,0,0,0-6.951.014,19.25,19.25,0,0,0-9.146,6.157C-474.779,915.442-475.113,915.833-475.586,916.4Z" transform="translate(830.547 -852.181)" fill="#2eb431"/>
      <g id="Group_350" data-name="Group 350" transform="translate(100.96 59.934)">
        <path id="Path_91" data-name="Path 91" d="M-610.55,997.616a8.283,8.283,0,0,0-5.3,1.029,14.282,14.282,0,0,1-3.248,1.073,2.712,2.712,0,0,1-3.114-1.726,12.7,12.7,0,0,1-.54-1.5,2.44,2.44,0,0,1,.978-2.92c.247-.187.494-.377.756-.541a4.916,4.916,0,0,0,2.143-2.923A3.807,3.807,0,0,1-613,988.16a3.2,3.2,0,0,1,.421.324,11.183,11.183,0,0,0,4.852,2.863,3.77,3.77,0,0,1,2.179,4.469,2.023,2.023,0,0,1-1.638,1.4C-608.357,997.424-609.549,997.5-610.55,997.616Z" transform="translate(627.717 -978.475)" fill="#2eb431"/>
        <path id="Path_92" data-name="Path 92" d="M-604.386,974.5a2.892,2.892,0,0,1-1.086,2.25,1.931,1.931,0,0,1-3.149-.786A5.733,5.733,0,0,1-609,971.83a3.731,3.731,0,0,1,.994-1.507,1.578,1.578,0,0,1,2.574.445A7.874,7.874,0,0,1-604.386,974.5Z" transform="translate(621.016 -969.836)" fill="#2eb431"/>
        <path id="Path_93" data-name="Path 93" d="M-624.387,974.665a6.428,6.428,0,0,1,.784-1.6c1.033-1.146,2.2-1.086,2.934.257a38.162,38.162,0,0,1,1.724,4.158c.4,1.007-.365,1.451-.971,1.949a1.415,1.415,0,0,1-1.843-.005,4.928,4.928,0,0,1-1.174-1.243A8.507,8.507,0,0,1-624.387,974.665Z" transform="translate(628.445 -971.023)" fill="#2eb431"/>
        <path id="Path_94" data-name="Path 94" d="M-627.163,987.889c.006,1.859-.991,2.6-2.277,2.006a5,5,0,0,1-2.866-3.588,1.553,1.553,0,0,1,.7-1.726,1.652,1.652,0,0,1,1.962-.249A5.27,5.27,0,0,1-627.163,987.889Z" transform="translate(632.353 -976.833)" fill="#2eb431"/>
        <path id="Path_95" data-name="Path 95" d="M-591.087,982.159a2.823,2.823,0,0,1-2.319,2.642,1.126,1.126,0,0,1-1.317-.642,4.318,4.318,0,0,1,.475-4.035,1.427,1.427,0,0,1,2.514.184A10.143,10.143,0,0,1-591.087,982.159Z" transform="translate(614.04 -974.558)" fill="#2eb431"/>
        <path id="Path_96" data-name="Path 96" d="M-539.375,996.672a2.03,2.03,0,0,1,.83-1.758,7.562,7.562,0,0,1,.851-.635,5.147,5.147,0,0,0,2.331-3.1,3.779,3.779,0,0,1,5.569-2.035,7.956,7.956,0,0,1,1.453,1.155,7.793,7.793,0,0,0,3.418,1.947,3.513,3.513,0,0,1,2.913,3.626,2.1,2.1,0,0,1-1.57,2.443,9.858,9.858,0,0,1-1.822.3,5.1,5.1,0,0,1-1.062.006,10.834,10.834,0,0,0-6.382,1.39,11.067,11.067,0,0,1-2.489.886,2.714,2.714,0,0,1-3.029-1.142A5.133,5.133,0,0,1-539.375,996.672Z" transform="translate(586.741 -979.032)" fill="#2eb431"/>
        <path id="Path_97" data-name="Path 97" d="M-521,975.314a2.74,2.74,0,0,1-1.613,2.908,1.7,1.7,0,0,1-2.373-.747,6.252,6.252,0,0,1-.534-4.64,2.839,2.839,0,0,1,.758-1.217,1.634,1.634,0,0,1,2.844.384A6.149,6.149,0,0,1-521,975.314Z" transform="translate(580.049 -970.384)" fill="#2eb431"/>
        <path id="Path_98" data-name="Path 98" d="M-540.756,975.841a2.388,2.388,0,0,1,1.739-2.25,1.335,1.335,0,0,1,1.541.484,10.791,10.791,0,0,1,1.023,1.694c.335.719.581,1.48.847,2.23.6,1.681.241,1.849-1.069,2.832a1.22,1.22,0,0,1-.849.118,2.232,2.232,0,0,1-.833-.384A7.477,7.477,0,0,1-540.756,975.841Z" transform="translate(587.416 -971.645)" fill="#2eb431"/>
        <path id="Path_99" data-name="Path 99" d="M-543.69,989.388a1.594,1.594,0,0,1-2.388,1.622,4.9,4.9,0,0,1-2.809-3.659,1.584,1.584,0,0,1,.806-1.692,1.614,1.614,0,0,1,1.867-.185A5.473,5.473,0,0,1-543.69,989.388Z" transform="translate(591.419 -977.397)" fill="#2eb431"/>
        <path id="Path_100" data-name="Path 100" d="M-511.559,983.932a3.927,3.927,0,0,1,.77-2.691,1.407,1.407,0,0,1,2.2-.2,2.871,2.871,0,0,1-.523,4.558c-1.357.757-2.241.318-2.421-1.207C-511.557,984.174-511.558,983.952-511.559,983.932Z" transform="translate(573.092 -975.117)" fill="#2eb431"/>
      </g>
      <path id="Path_101" data-name="Path 101" d="M-351.761,984.737a2.328,2.328,0,0,1,.251-2.29,10.343,10.343,0,0,1,1.792-2.111,12.687,12.687,0,0,1,5.23-2.524,2.44,2.44,0,0,1,2.956,1.438,2.375,2.375,0,0,1-.416,3.046,6.411,6.411,0,0,1-2.4,1.34,46.091,46.091,0,0,1-4.831.845C-350.038,984.608-350.908,984.654-351.761,984.737Z" transform="translate(595.75 -913.765)" fill="#2eb431"/>
    </g>
  </g>
</svg>
