<svg xmlns="http://www.w3.org/2000/svg" xmlns:xlink="http://www.w3.org/1999/xlink" version="1.1" width="256" height="256" viewBox="0 0 256 256" xml:space="preserve">

<defs>
</defs>
<g style="stroke: none; stroke-width: 0; stroke-dasharray: none; stroke-linecap: butt; stroke-linejoin: miter; stroke-miterlimit: 10; fill: none; fill-rule: nonzero; opacity: 1;" transform="translate(1.4065934065934016 1.4065934065934016) scale(2.81 2.81)" >
	<path d="M 45.003 90 C 20.915 90 1.319 70.404 1.319 46.316 c 0 -19.221 12.86 -36.449 31.274 -41.896 c 1.6 -0.471 3.272 0.439 3.744 2.034 c 0.472 1.596 -0.439 3.272 -2.034 3.744 C 18.43 14.893 7.344 29.745 7.344 46.316 c 0 20.765 16.893 37.659 37.659 37.659 c 1.664 0 3.013 1.348 3.013 3.013 S 46.667 90 45.003 90 z" style="stroke: none; stroke-width: 1; stroke-dasharray: none; stroke-linecap: butt; stroke-linejoin: miter; stroke-miterlimit: 10; fill: rgb(115,45,217); fill-rule: nonzero; opacity: 1;" transform=" matrix(1 0 0 1 0 0) " stroke-linecap="round" />
	<polygon points="32.51,15.99 45,5.64 29.8,0 " style="stroke: none; stroke-width: 1; stroke-dasharray: none; stroke-linecap: butt; stroke-linejoin: miter; stroke-miterlimit: 10; fill: rgb(115,45,217); fill-rule: nonzero; opacity: 1;" transform="  matrix(1 0 0 1 0 0) "/>
	<path d="M 54.584 9.792 c -0.232 0 -0.469 -0.027 -0.705 -0.083 L 53.415 9.6 c -1.622 -0.372 -2.635 -1.988 -2.263 -3.609 c 0.372 -1.623 1.992 -2.633 3.609 -2.264 l 0.523 0.123 c 1.618 0.387 2.616 2.013 2.228 3.632 C 57.18 8.863 55.945 9.792 54.584 9.792 z" style="stroke: none; stroke-width: 1; stroke-dasharray: none; stroke-linecap: butt; stroke-linejoin: miter; stroke-miterlimit: 10; fill: rgb(115,45,217); fill-rule: nonzero; opacity: 1;" transform=" matrix(1 0 0 1 0 0) " stroke-linecap="round" />
	<path d="M 68.019 82.867 c -0.959 0 -1.902 -0.456 -2.485 -1.306 c -0.943 -1.371 -0.595 -3.246 0.776 -4.189 c 0.262 -0.18 0.522 -0.365 0.78 -0.551 c 1.346 -0.977 3.23 -0.676 4.207 0.673 c 0.976 1.347 0.675 3.231 -0.673 4.207 c -0.297 0.216 -0.598 0.428 -0.901 0.635 C 69.201 82.696 68.607 82.867 68.019 82.867 z M 77.613 73.634 c -0.63 0 -1.264 -0.196 -1.805 -0.602 c -1.331 -0.998 -1.601 -2.887 -0.603 -4.218 c 0.189 -0.252 0.375 -0.506 0.556 -0.763 c 0.958 -1.359 2.839 -1.686 4.198 -0.723 c 1.359 0.96 1.683 2.839 0.723 4.198 c -0.215 0.304 -0.433 0.605 -0.656 0.902 C 79.433 73.218 78.529 73.634 77.613 73.634 z M 83.728 61.799 c -0.305 0 -0.615 -0.047 -0.92 -0.144 c -1.585 -0.508 -2.458 -2.204 -1.951 -3.788 c 0.098 -0.305 0.192 -0.61 0.282 -0.917 c 0.469 -1.596 2.142 -2.511 3.739 -2.041 c 1.597 0.469 2.511 2.143 2.041 3.739 c -0.104 0.354 -0.212 0.706 -0.324 1.056 C 86.187 60.983 85.002 61.799 83.728 61.799 z M 85.667 48.62 c -1.64 0 -2.983 -1.315 -3.012 -2.961 c -0.005 -0.318 -0.014 -0.634 -0.027 -0.949 c -0.072 -1.662 1.218 -3.068 2.88 -3.14 c 1.683 -0.083 3.068 1.218 3.139 2.88 c 0.016 0.367 0.026 0.736 0.033 1.105 c 0.028 1.664 -1.297 3.035 -2.961 3.065 C 85.703 48.62 85.685 48.62 85.667 48.62 z M 83.27 35.521 c -1.236 0 -2.394 -0.766 -2.835 -1.995 c -0.107 -0.296 -0.218 -0.591 -0.331 -0.884 c -0.606 -1.549 0.16 -3.297 1.709 -3.903 c 1.549 -0.607 3.297 0.16 3.902 1.71 c 0.135 0.345 0.266 0.691 0.39 1.04 c 0.563 1.566 -0.251 3.291 -1.816 3.854 C 83.952 35.464 83.609 35.521 83.27 35.521 z M 76.755 23.908 c -0.883 0 -1.756 -0.386 -2.352 -1.127 c -0.2 -0.249 -0.402 -0.495 -0.607 -0.738 c -1.072 -1.272 -0.91 -3.173 0.362 -4.245 c 1.274 -1.073 3.174 -0.91 4.245 0.362 c 0.236 0.28 0.47 0.564 0.699 0.85 c 1.042 1.298 0.834 3.194 -0.465 4.236 C 78.082 23.691 77.416 23.908 76.755 23.908 z M 66.837 15.011 c -0.554 0 -1.114 -0.152 -1.616 -0.473 c -0.269 -0.171 -0.539 -0.339 -0.813 -0.504 c -1.425 -0.86 -1.883 -2.712 -1.023 -4.136 c 0.859 -1.425 2.71 -1.884 4.136 -1.023 c 0.315 0.19 0.629 0.384 0.939 0.582 c 1.403 0.894 1.815 2.756 0.922 4.16 C 68.806 14.518 67.832 15.011 66.837 15.011 z" style="stroke: none; stroke-width: 1; stroke-dasharray: none; stroke-linecap: butt; stroke-linejoin: miter; stroke-miterlimit: 10; fill: rgb(115,45,217); fill-rule: nonzero; opacity: 1;" transform=" matrix(1 0 0 1 0 0) " stroke-linecap="round" />
	<path d="M 56.426 88.375 c -1.299 0 -2.499 -0.847 -2.887 -2.156 c -0.474 -1.596 0.435 -3.273 2.03 -3.746 l 0.47 -0.14 c 1.595 -0.483 3.275 0.417 3.757 2.009 c 0.483 1.593 -0.417 3.275 -2.009 3.757 l -0.501 0.15 C 56.999 88.335 56.709 88.375 56.426 88.375 z" style="stroke: none; stroke-width: 1; stroke-dasharray: none; stroke-linecap: butt; stroke-linejoin: miter; stroke-miterlimit: 10; fill: rgb(115,45,217); fill-rule: nonzero; opacity: 1;" transform=" matrix(1 0 0 1 0 0) " stroke-linecap="round" />
	<path d="M 63.173 67.499 c -0.771 0 -1.542 -0.294 -2.13 -0.883 l -18.17 -18.17 c -0.565 -0.565 -0.883 -1.331 -0.883 -2.13 V 24.951 c 0 -1.664 1.349 -3.013 3.013 -3.013 c 1.664 0 3.013 1.349 3.013 3.013 v 20.117 l 17.288 17.288 c 1.177 1.176 1.177 3.084 0 4.26 C 64.715 67.205 63.944 67.499 63.173 67.499 z" style="stroke: none; stroke-width: 1; stroke-dasharray: none; stroke-linecap: butt; stroke-linejoin: miter; stroke-miterlimit: 10; fill: rgb(115,45,217); fill-rule: nonzero; opacity: 1;" transform=" matrix(1 0 0 1 0 0) " stroke-linecap="round" />
</g>
</svg>